<svg width="21" height="15" viewBox="0 0 21 15" fill="none" xmlns="http://www.w3.org/2000/svg">
<path id="mail-icon" d="M1.41077 0.165781C1.67717 0.0569535 1.96217 0.000703995 2.24999 0H18.7501C19.0379 0.000624996 19.3229 0.0568755 19.5893 0.165781L10.9329 6.27674C10.8064 6.36604 10.6554 6.41393 10.5005 6.41393C10.3457 6.41393 10.1947 6.36604 10.0681 6.27674L1.41077 0.165781ZM20.8305 13.5997C20.9421 13.3302 20.9997 13.0416 21 12.7499V2.25001C20.9974 1.88283 20.9037 1.52197 20.727 1.20001L13.8338 6.06598L20.8305 13.5997ZM12.6 6.93754L11.7975 7.50003C11.418 7.76785 10.9649 7.91159 10.5004 7.91159C10.0359 7.91159 9.58283 7.76784 9.20331 7.50003L8.40002 6.93754L1.17899 14.7165C1.50641 14.8998 1.87485 14.9973 2.25001 15H18.7501C19.1253 14.9973 19.4937 14.8998 19.8211 14.7165L12.6 6.93754ZM0.272961 1.19997C0.0963205 1.52193 0.00256001 1.88279 0 2.24997V12.7499C0.000312502 13.0415 0.0578903 13.3302 0.169533 13.5996L7.16637 6.0645L0.272961 1.19997Z" fill="white"/>
</svg>
