<svg width="13" height="18" viewBox="0 0 13 18" fill="none" xmlns="http://www.w3.org/2000/svg">
<path id="phone-icon" d="M12.8311 15.7307C12.5723 16.2534 12.1173 16.6679 11.5533 16.8948L9.44949 17.8175H9.44956C9.17478 17.9379 8.87527 18.0002 8.57213 18C8.05571 17.9997 7.55744 17.8213 7.17169 17.4988C4.99435 15.6763 3.23335 13.4576 1.99547 10.9767C0.759332 8.49376 0.0805216 5.79827 0.00104172 3.05811C-0.0118702 2.67339 0.0954872 2.29359 0.309843 1.96566C0.524197 1.63765 0.836193 1.37597 1.20715 1.21278L3.55403 0.184125C4.05615 -0.0360402 4.63067 -0.0597022 5.15135 0.118212C5.67204 0.296184 6.09618 0.661131 6.33048 1.13296L7.50671 3.50301C7.7418 3.97469 7.76778 4.51482 7.57888 5.00452C7.39006 5.4942 7.00184 5.89331 6.49972 6.11395L5.03733 6.75394C5.22151 8.545 6.05549 10.2221 7.39944 11.504L8.85277 10.8574C9.35511 10.638 9.92946 10.6147 10.4501 10.7926C10.9706 10.9704 11.3949 11.335 11.6299 11.8063L12.8075 14.1784C13.0556 14.6679 13.0643 15.2347 12.8312 15.7307L12.8311 15.7307Z" fill="white"/>
</svg>
